<svg xmlns="http://www.w3.org/2000/svg" width="15.02" height="15.021" viewBox="0 0 15.02 15.021">
  <path id="Union_24" data-name="Union 24" d="M9.229,15.02a1.1,1.1,0,0,1-1.1-1.1V11.108a1.1,1.1,0,0,1,1.1-1.1h4.694a1.1,1.1,0,0,1,1.1,1.094v2.816a1.1,1.1,0,0,1-1.1,1.1Zm-8.135,0a1.1,1.1,0,0,1-1.1-1.1V7.352a1.1,1.1,0,0,1,1.1-1.094H5.789a1.1,1.1,0,0,1,1.1,1.094v6.572a1.1,1.1,0,0,1-1.1,1.1ZM9.229,8.762a1.1,1.1,0,0,1-1.1-1.1V1.094A1.1,1.1,0,0,1,9.229,0h4.694a1.1,1.1,0,0,1,1.1,1.1V7.666a1.1,1.1,0,0,1-1.1,1.1ZM1.094,5.007A1.1,1.1,0,0,1,0,3.911V1.094A1.1,1.1,0,0,1,1.094,0H5.789a1.1,1.1,0,0,1,1.1,1.1V3.911a1.1,1.1,0,0,1-1.1,1.1Z" transform="translate(0.001 0.001)" fill="#a9c8c5"/>
</svg>
