<svg xmlns="http://www.w3.org/2000/svg" width="12" height="12" viewBox="0 0 12 12">
  <path id="Path_668" data-name="Path 668" d="M8,2a6,6,0,1,0,6,6A6.009,6.009,0,0,0,8,2Zm1.719,9.369H6.282a1.366,1.366,0,0,1-1.363-1.363.476.476,0,1,1,.951,0,.413.413,0,0,0,.416.416H9.723a.413.413,0,0,0,.416-.416.476.476,0,1,1,.951,0A1.379,1.379,0,0,1,9.719,11.369ZM9.2,7.413a.473.473,0,0,1,.639.7L8.317,9.492s0,0-.009,0a.5.5,0,0,1-.137.081.016.016,0,0,1-.013,0A.5.5,0,0,1,8,9.612a.387.387,0,0,1-.159-.03.026.026,0,0,0-.017,0A.4.4,0,0,1,7.687,9.5s0,0-.009,0L6.162,8.112a.473.473,0,1,1,.639-.7l.724.656V5.107a.476.476,0,0,1,.951,0V8.069Z" transform="translate(-2 -2)" fill="#00a594"/>
</svg>
