<svg xmlns="http://www.w3.org/2000/svg" width="9.999" height="10.002" viewBox="0 0 9.999 10.002">
  <path id="Union_59" data-name="Union 59" d="M10183.054-6167.973a.972.972,0,0,1,.975-.971.971.971,0,0,1,.972.971.974.974,0,0,1-.972.974A.974.974,0,0,1,10183.054-6167.973Zm-4.026,0a.971.971,0,0,1,.971-.971.973.973,0,0,1,.975.971.976.976,0,0,1-.975.974A.974.974,0,0,1,10179.027-6167.973Zm-4.026,0a.971.971,0,0,1,.971-.971.971.971,0,0,1,.972.971.974.974,0,0,1-.972.974A.974.974,0,0,1,10175-6167.973Zm8.053-4.027a.974.974,0,0,1,.975-.974.973.973,0,0,1,.972.974.971.971,0,0,1-.972.971A.972.972,0,0,1,10183.054-6172Zm-4.026,0a.974.974,0,0,1,.971-.974.976.976,0,0,1,.975.974.973.973,0,0,1-.975.971A.971.971,0,0,1,10179.027-6172Zm-4.026,0a.973.973,0,0,1,.971-.974.973.973,0,0,1,.972.974.971.971,0,0,1-.972.971A.971.971,0,0,1,10175-6172Zm8.053-4.027a.972.972,0,0,1,.975-.974.972.972,0,0,1,.972.974.971.971,0,0,1-.972.972A.972.972,0,0,1,10183.054-6176.027Zm-4.026,0a.972.972,0,0,1,.971-.974.974.974,0,0,1,.975.974.974.974,0,0,1-.975.972A.972.972,0,0,1,10179.027-6176.027Zm-4.026,0a.971.971,0,0,1,.971-.974.972.972,0,0,1,.972.974.971.971,0,0,1-.972.972A.971.971,0,0,1,10175-6176.027Z" transform="translate(-10175.001 6177.001)" fill="#9d9a9a"/>
</svg>
