<svg xmlns="http://www.w3.org/2000/svg" width="21.896" height="15.895" viewBox="0 0 21.896 15.895">
  <path id="Union_53" data-name="Union 53" d="M8756.052-6162.051h-12.207a2.45,2.45,0,0,1-2.4,1.946,2.45,2.45,0,0,1-2.449-2.445,2.453,2.453,0,0,1,2.449-2.45,2.494,2.494,0,0,1,.284.017l1.7-6.341a2.451,2.451,0,0,1-1.431-2.226,2.451,2.451,0,0,1,2.447-2.449,2.455,2.455,0,0,1,2.4,1.948h6.207a2.451,2.451,0,0,1,2.4-1.948,2.453,2.453,0,0,1,2.449,2.449,2.449,2.449,0,0,1-1.205,2.107l1.724,6.444h.033a2.451,2.451,0,0,1,2.447,2.45,2.448,2.448,0,0,1-2.447,2.445A2.453,2.453,0,0,1,8756.052-6162.051Zm1.025-.5a1.372,1.372,0,0,0,1.372,1.37,1.372,1.372,0,0,0,1.37-1.37,1.374,1.374,0,0,0-1.37-1.372A1.374,1.374,0,0,0,8757.077-6162.55Zm-17,0a1.372,1.372,0,0,0,1.372,1.37,1.372,1.372,0,0,0,1.37-1.37,1.374,1.374,0,0,0-1.37-1.372A1.374,1.374,0,0,0,8740.077-6162.55Zm15.975-.5a2.459,2.459,0,0,1,1.389-1.73l-1.7-6.339a2.409,2.409,0,0,1-.293.018,2.451,2.451,0,0,1-2.4-1.948h-6.207a2.454,2.454,0,0,1-2.4,1.948h-.041l-1.723,6.439a2.459,2.459,0,0,1,1.16,1.613Zm-1.974-10.5a1.374,1.374,0,0,0,1.37,1.372,1.373,1.373,0,0,0,1.37-1.372,1.372,1.372,0,0,0-1.37-1.372A1.373,1.373,0,0,0,8754.078-6173.551Zm-11,0a1.374,1.374,0,0,0,1.37,1.372,1.373,1.373,0,0,0,1.37-1.372,1.372,1.372,0,0,0-1.37-1.372A1.373,1.373,0,0,0,8743.078-6173.551Z" transform="translate(-8739 6176)" fill="#747070"/>
</svg>
