<svg xmlns="http://www.w3.org/2000/svg" width="15.618" height="15.618" viewBox="0 0 15.618 15.618">
  <g id="tree" transform="translate(0 0)">
    <g id="Group_20" data-name="Group 20" transform="translate(0 0)">
      <g id="Group_19" data-name="Group 19">
        <path id="Path_13" data-name="Path 13" d="M9.479,6.655A2.728,2.728,0,0,0,10.1,5.033,2.352,2.352,0,0,0,8.282,2.775l-.028-.292a2.741,2.741,0,0,0-5.459,0l-.03.29A2.365,2.365,0,0,0,.915,5.033a2.731,2.731,0,0,0,.618,1.622A3.051,3.051,0,0,0,0,9.182,2.749,2.749,0,0,0,2.776,11.9H8.267a2.748,2.748,0,0,0,2.745-2.745A2.957,2.957,0,0,0,9.479,6.655Z" fill="#00a594"/>
      </g>
    </g>
    <g id="Group_22" data-name="Group 22" transform="translate(8.454 0)">
      <g id="Group_21" data-name="Group 21">
        <path id="Path_14" data-name="Path 14" d="M282.753,6.655a2.728,2.728,0,0,0,.618-1.622,2.37,2.37,0,0,0-1.845-2.258l-.028-.292A2.734,2.734,0,0,0,278.765,0a2.7,2.7,0,0,0-1.644.565,3.633,3.633,0,0,1,.678,1.569,3.078,3.078,0,0,1,1.881,2.9,3.135,3.135,0,0,1-.323,1.4,3.524,3.524,0,0,1,1.238,2.718A3.637,3.637,0,0,1,279.33,11.9h2.18a2.775,2.775,0,0,0,2.776-2.745A2.957,2.957,0,0,0,282.753,6.655Z" transform="translate(-277.121)" fill="#00a594"/>
      </g>
    </g>
    <g id="Group_24" data-name="Group 24" transform="translate(2.776 12.812)">
      <g id="Group_23" data-name="Group 23">
        <path id="Path_15" data-name="Path 15" d="M100.151,421.891V420h-1.83v1.891H94.66V420H92.83v1.891H91v.915h10.981v-.915Z" transform="translate(-91 -420)" fill="#00a594"/>
      </g>
    </g>
  </g>
</svg>
