<svg xmlns="http://www.w3.org/2000/svg" width="21.861" height="15.618" viewBox="0 0 21.861 15.618">
  <g id="layer" transform="translate(0 0)">
    <path id="Path_23" data-name="Path 23" d="M1.918,78.338A1.921,1.921,0,0,0,3.725,77.06H5.6l5.023,2.463a.639.639,0,0,0,.563,0l5.156-2.528a.639.639,0,0,0,0-1.148l-5.156-2.528a.639.639,0,0,0-.563,0L5.6,75.781H3.725a1.918,1.918,0,1,0-1.808,2.557Z" transform="translate(0 -73.253)" fill="current"/>
    <path id="Path_24" data-name="Path 24" d="M127.6,174.968a1.917,1.917,0,0,1-1.689,0l-4.189-2.054-.362.177a.639.639,0,0,0,0,1.148l5.156,2.528a.639.639,0,0,0,.563,0L132.1,174.3h1.879a1.918,1.918,0,1,0,0-1.278h-2.421Z" transform="translate(-115.844 -167.55)" fill="current"/>
    <path id="Path_25" data-name="Path 25" d="M10.627,250.428a.639.639,0,0,0,.563,0l5.156-2.528a.639.639,0,0,0,0-1.148l-.557-.273L11.8,248.437a1.918,1.918,0,0,1-1.689,0l-3.57-1.75H3.724a1.918,1.918,0,1,0,0,1.278H5.6Z" transform="translate(0.001 -238.072)" fill="current"/>
    <path id="Path_26" data-name="Path 26" d="M135.787,320.414a1.921,1.921,0,0,0-1.808,1.278H131.05l-3.453,1.693a1.918,1.918,0,0,1-1.689,0l-3.935-1.93-.616.3a.639.639,0,0,0,0,1.148l5.156,2.528a.639.639,0,0,0,.563,0l5.023-2.463h1.879a1.918,1.918,0,1,0,1.808-2.557Z" transform="translate(-115.844 -309.881)" fill="current"/>
  </g>
</svg>
