<svg xmlns="http://www.w3.org/2000/svg" width="77.259" height="19" viewBox="0 0 77.259 19">
  <g id="Group_140" data-name="Group 140" transform="translate(-912 -45)">
    <text id="راهنمای_لایه" data-name="راهنمای لایه" transform="translate(941 58)" fill="#9d9b9b" font-size="12" font-family="IRANSans"><tspan x="-28.67" y="0">راهنمای لایه</tspan></text>
    <path id="Union_41" data-name="Union 41" d="M6.348,12.51.249,9.94a.406.406,0,0,1,0-.748l.636-.268L6.03,11.092a1.219,1.219,0,0,0,.95,0l5.148-2.168.635.268a.405.405,0,0,1,0,.748l-6.1,2.57a.4.4,0,0,1-.157.032A.411.411,0,0,1,6.348,12.51Zm0-3.244L.249,6.7a.407.407,0,0,1,0-.749l.636-.267L6.03,7.847a1.223,1.223,0,0,0,.95,0L12.128,5.68l.635.268a.405.405,0,0,1,0,.748l-6.1,2.57a.4.4,0,0,1-.157.031A.41.41,0,0,1,6.348,9.265Zm0-3.346L.249,3.35a.406.406,0,0,1,0-.748l6.1-2.57a.411.411,0,0,1,.317,0l6.1,2.57a.406.406,0,0,1,0,.748l-6.1,2.57a.4.4,0,0,1-.157.031A.41.41,0,0,1,6.348,5.92Z" transform="translate(976.247 47.958)" fill="#9d9b9b"/>
  </g>
</svg>
