<svg xmlns="http://www.w3.org/2000/svg" width="19.062" height="17.776" viewBox="0 0 19.062 17.776">
  <g id="Group_63" data-name="Group 63" transform="translate(-2 -2.94)">
    <path id="Path_175" data-name="Path 175" d="M14.256,3.165A.737.737,0,0,0,14.011,3C14,3,14,3,14,2.994a.747.747,0,0,0-.272-.054.719.719,0,0,0-.272.054c-.007,0-.007,0-.014.007a.772.772,0,0,0-.245.163l-4.1,4.1a.751.751,0,1,0,1.062,1.062l2.811-2.811v9.773a.755.755,0,1,0,1.511,0V5.512l2.811,2.811a.751.751,0,0,0,1.062-1.062Z" transform="translate(-2.197)" fill="#c1c0c0"/>
    <path id="Path_176" data-name="Path 176" d="M20.3,20.07a.754.754,0,0,0-.755.755,3.857,3.857,0,0,1-3.852,3.852H7.363a3.857,3.857,0,0,1-3.852-3.852.755.755,0,1,0-1.511,0,5.369,5.369,0,0,0,5.363,5.363H15.7a5.369,5.369,0,0,0,5.363-5.363A.764.764,0,0,0,20.3,20.07Z" transform="translate(0 -5.472)" fill="#c1c0c0"/>
  </g>
</svg>
