<svg xmlns="http://www.w3.org/2000/svg" width="16" height="15.458" viewBox="0 0 16 15.458">
  <path id="Union_36" data-name="Union 36" d="M7.806,15.419l-7.5-3.167a.5.5,0,0,1,0-.922L1.087,11l6.328,2.672a1.5,1.5,0,0,0,1.168,0L14.913,11l.781.33a.5.5,0,0,1,0,.922l-7.5,3.167a.5.5,0,0,1-.194.04A.5.5,0,0,1,7.806,15.419Zm0-4L.306,8.253a.5.5,0,0,1,0-.923L1.087,7,7.415,9.672a1.5,1.5,0,0,0,1.168,0L14.913,7l.781.33a.5.5,0,0,1,0,.922l-7.5,3.167A.5.5,0,0,1,8,11.459.5.5,0,0,1,7.806,11.42Zm0-4.124L.306,4.129a.5.5,0,0,1,0-.922L7.806.04a.5.5,0,0,1,.39,0l7.5,3.167a.5.5,0,0,1,0,.922L8.194,7.3A.5.5,0,0,1,8,7.335.5.5,0,0,1,7.806,7.3Z" transform="translate(0 0)" fill="current"/>
</svg>
