<svg xmlns="http://www.w3.org/2000/svg" width="23.984" height="26.054" viewBox="0 0 23.984 26.054">
  <g id="Group_94" data-name="Group 94" transform="translate(-6.695 -3.175)">
    <path id="Path_238" data-name="Path 238" d="M39.462,58.354a5.315,5.315,0,0,1-2,1.214l-.851,8.623h5.511L41.267,59.5A4.534,4.534,0,0,1,39.462,58.354Z" transform="translate(-21.125 -38.962)" fill="#00a594"/>
    <path id="Path_239" data-name="Path 239" d="M29.045,10.21a3.693,3.693,0,0,0,.178-1.13A4.239,4.239,0,0,0,24.8,5.059a4.758,4.758,0,0,0-2.134.5,4.831,4.831,0,0,0-4.254-2.381,4.756,4.756,0,0,0-4.495,2.893,4.647,4.647,0,0,0-2.006-.449A4.132,4.132,0,0,0,7.591,9.538a3.605,3.605,0,0,0,.361,1.569A3.5,3.5,0,0,0,6.7,13.764a3.8,3.8,0,0,0,3.491,3.631,5.024,5.024,0,0,0,4.578,2.732,5.181,5.181,0,0,0,3.864-1.667,4.406,4.406,0,0,0,3.421,1.565,4.229,4.229,0,0,0,4.078-2.753c.06,0,.12,0,.181,0a4.185,4.185,0,0,0,4.371-3.971A3.837,3.837,0,0,0,29.045,10.21Z" fill="#00a594"/>
  </g>
</svg>
