<svg xmlns="http://www.w3.org/2000/svg" width="11.999" height="12.001" viewBox="0 0 11.999 12.001">
  <path id="Union_62" data-name="Union 62" d="M10176.759-6165.754A5.958,5.958,0,0,1,10175-6170a5.958,5.958,0,0,1,1.759-4.244A5.958,5.958,0,0,1,10181-6176a5.966,5.966,0,0,1,4.244,1.756,6.01,6.01,0,0,1,0,8.488A5.962,5.962,0,0,1,10181-6164,5.958,5.958,0,0,1,10176.759-6165.754Zm4.241.619a4.826,4.826,0,0,0,3.439-1.426,4.828,4.828,0,0,0,1.421-3.437,4.838,4.838,0,0,0-1.421-3.439,4.836,4.836,0,0,0-3.439-1.424h0v9.726Z" transform="translate(-10175 6175.999)" fill="#9d9a9a"/>
</svg>
