<svg xmlns="http://www.w3.org/2000/svg" width="12" height="12" viewBox="0 0 12 12">
  <path id="Subtraction_57" data-name="Subtraction 57" d="M-4433-31a6.007,6.007,0,0,1-6-6,6.007,6.007,0,0,1,6-6,6.007,6.007,0,0,1,6,6A6.007,6.007,0,0,1-4433-31Zm.831-3.514h0l1.791.666a.228.228,0,0,0,.077.014.229.229,0,0,0,.127-.04.221.221,0,0,0,.1-.183v-4.906a.22.22,0,0,0-.133-.207l-1.875-.7h-.021a.146.146,0,0,0-.03-.007h-.073a.151.151,0,0,0-.031.008l-1.792.666-1.79-.666a.221.221,0,0,0-.079-.014.215.215,0,0,0-.125.04.22.22,0,0,0-.1.182v4.906a.223.223,0,0,0,.137.207l1.87.7h.019a.191.191,0,0,0,.059.009.2.2,0,0,0,.06-.009h.018l1.791-.666Zm-1.642.137h0v-4.429l1.426-.535v4.432l-1.423.533Z" transform="translate(4439 43)" fill="#00a594"/>
</svg>
