<svg xmlns="http://www.w3.org/2000/svg" width="14.241" height="14.242" viewBox="0 0 14.241 14.242">
  <path id="Union_52" data-name="Union 52" d="M8742.889-6161.758a.5.5,0,0,1-.5-.494.5.5,0,0,1,.5-.5h2.155a.5.5,0,0,1,.494.5.5.5,0,0,1-.494.494Zm-3.394,0a.5.5,0,0,1-.494-.494v-1.239a.5.5,0,0,1,.494-.5.5.5,0,0,1,.5.5v.743h.743a.5.5,0,0,1,.5.5.5.5,0,0,1-.5.494Zm9.415-.215c-.428-.018-.744-.374-.936-.85l-1.751-4.374a1.75,1.75,0,0,1-.141-.675.844.844,0,0,1,.23-.573.839.839,0,0,1,.576-.229,1.655,1.655,0,0,1,.672.139l4.374,1.75c.477.191.832.508.85.936a1.136,1.136,0,0,1-.764,1l-.066.03a3.873,3.873,0,0,0-.652.439l1.234,1.237a.66.66,0,0,1,0,.927.658.658,0,0,1-.929,0l-1.234-1.237a3.921,3.921,0,0,0-.437.648c-.253.512-.582.833-1,.833Zm-9.909-3.673v-2.155a.493.493,0,0,1,.494-.494.494.494,0,0,1,.5.494v2.155a.494.494,0,0,1-.5.494A.493.493,0,0,1,8739-6165.646Zm13.251-4.31v-2.155a.493.493,0,0,1,.494-.494.494.494,0,0,1,.5.494v2.155a.494.494,0,0,1-.5.494A.493.493,0,0,1,8752.252-6169.956Zm-13.251,0v-2.155a.493.493,0,0,1,.494-.494.494.494,0,0,1,.5.494v2.155a.494.494,0,0,1-.5.494A.493.493,0,0,1,8739-6169.956Zm13.251-4.31v-.743h-.743a.5.5,0,0,1-.5-.5.5.5,0,0,1,.5-.494h1.237a.5.5,0,0,1,.5.494v1.239a.494.494,0,0,1-.5.494A.493.493,0,0,1,8752.252-6174.266Zm-13.251,0v-1.239a.5.5,0,0,1,.494-.494h1.239a.5.5,0,0,1,.5.494.5.5,0,0,1-.5.5h-.743v.743a.494.494,0,0,1-.5.494A.493.493,0,0,1,8739-6174.266Zm8.2-.743a.5.5,0,0,1-.494-.5.5.5,0,0,1,.494-.494h2.155a.5.5,0,0,1,.5.494.5.5,0,0,1-.5.5Zm-4.311,0a.5.5,0,0,1-.5-.5.5.5,0,0,1,.5-.494h2.155a.5.5,0,0,1,.494.494.5.5,0,0,1-.494.5Z" transform="translate(-8739.001 6176)" fill="#9d9b9b"/>
</svg>
