<svg xmlns="http://www.w3.org/2000/svg" width="12" height="12" viewBox="0 0 12 12">
  <path id="Subtraction_56" data-name="Subtraction 56" d="M-4433-31a6.007,6.007,0,0,1-6-6,6.007,6.007,0,0,1,6-6,6.007,6.007,0,0,1,6,6A6.007,6.007,0,0,1-4433-31Zm-1.5-3.226h0l.583.24c.085.189.367.663.421.746a.256.256,0,0,0,.22.125h.537a.259.259,0,0,0,.221-.121c.035-.056.332-.551.422-.746l.583-.241c.118.044.386.119.8.226l.027.007a.266.266,0,0,0,.057.006.26.26,0,0,0,.184-.076l.377-.378a.259.259,0,0,0,.07-.241c-.015-.067-.156-.625-.233-.828l.241-.583c.191-.087.673-.375.748-.422a.258.258,0,0,0,.124-.222v-.535a.254.254,0,0,0-.122-.221c-.066-.042-.553-.333-.746-.421l-.241-.584c.043-.117.118-.382.223-.788l.01-.039a.259.259,0,0,0-.07-.241l-.38-.378a.257.257,0,0,0-.183-.077.254.254,0,0,0-.058.007c-.066.014-.621.154-.828.233l-.583-.241c-.086-.189-.373-.669-.422-.748a.264.264,0,0,0-.219-.124h-.535a.261.261,0,0,0-.219.121c-.037.058-.332.55-.423.748l-.582.241c-.2-.072-.731-.209-.828-.233a.254.254,0,0,0-.058-.007.257.257,0,0,0-.183.077l-.377.38a.259.259,0,0,0-.07.241c.016.067.154.62.233.827l-.241.584c-.191.087-.684.382-.748.421a.26.26,0,0,0-.123.221v.534a.264.264,0,0,0,.12.221c.068.042.554.333.748.421l.241.584c-.068.184-.2.7-.233.827a.259.259,0,0,0,.07.241l.377.378a.258.258,0,0,0,.183.077.254.254,0,0,0,.058-.007c.081-.019.624-.157.826-.233Zm1.5-1.082a1.7,1.7,0,0,1-1.692-1.7A1.7,1.7,0,0,1-4433-38.7a1.685,1.685,0,0,1,1.2.5,1.683,1.683,0,0,1,.495,1.2A1.7,1.7,0,0,1-4433-35.307Z" transform="translate(4439 43)" fill="#00a594"/>
</svg>
