<svg xmlns="http://www.w3.org/2000/svg" width="9.726" height="11.133" viewBox="0 0 9.726 11.133">
  <path id="Path_669" data-name="Path 669" d="M16.576,14.882a1.844,1.844,0,0,1,1.433.683l2.813-1.822a1.773,1.773,0,0,1-.134-.683,1.879,1.879,0,0,1,.08-.549l-2.853-1.822a1.852,1.852,0,0,1-1.34.563,1.876,1.876,0,1,1,1.876-1.876,1.9,1.9,0,0,1-.08.563L21.2,11.774a1.856,1.856,0,0,1,1.353-.589,1.876,1.876,0,0,1,0,3.751,1.839,1.839,0,0,1-1.232-.469l-2.907,1.876a2.071,2.071,0,0,1,.054.415,1.876,1.876,0,1,1-1.889-1.876Z" transform="translate(-14.7 -7.5)" fill="#00a594"/>
</svg>
