<svg xmlns="http://www.w3.org/2000/svg" width="19.799" height="19.799" viewBox="0 0 19.799 19.799">
  <path id="Union_49" data-name="Union 49" d="M6.271,14A1.023,1.023,0,0,1,5.25,12.979V11.6l-.656.524a.582.582,0,0,1-.364.128H1.165A1.167,1.167,0,0,1,0,11.084V8.169A1.167,1.167,0,0,1,1.165,7H4.229a.58.58,0,0,1,.363.127l.657.527V6.271A1.024,1.024,0,0,1,6.271,5.25H7.73A1.023,1.023,0,0,1,8.75,6.272V7.655l.656-.525A.573.573,0,0,1,9.771,7h3.063A1.167,1.167,0,0,1,14,8.166v2.919a1.168,1.168,0,0,1-1.166,1.166H9.771a.573.573,0,0,1-.362-.128L8.75,11.6v1.382A1.022,1.022,0,0,1,7.73,14Zm3.706-2.916h2.857V8.169H9.977L8.75,9.147V10.1Zm-8.812,0h2.86L5.25,10.1V9.147L4.025,8.166H1.165Zm5.25-7.146A.584.584,0,1,1,7,4.522.585.585,0,0,1,6.415,3.938Zm-.861-.83A.44.44,0,0,1,5.5,2.49a1.9,1.9,0,0,1,3.006,0,.438.438,0,1,1-.674.56,1.045,1.045,0,0,0-1.661,0,.428.428,0,0,1-.335.158A.449.449,0,0,1,5.554,3.109ZM9,1.884A2.585,2.585,0,0,0,7,.875,2.588,2.588,0,0,0,5,1.884a.438.438,0,0,1-.674-.56A3.452,3.452,0,0,1,7,0,3.44,3.44,0,0,1,9.669,1.327a.434.434,0,0,1-.055.615A.441.441,0,0,1,9,1.884Z" transform="translate(0 9.899) rotate(-45)" fill="#615f5f"/>
</svg>
